<mxfile host="app.diagrams.net" modified="2024-06-21T08:35:42.980Z" agent="Mozilla/5.0 (Macintosh; Intel Mac OS X 10_15_7) AppleWebKit/537.36 (KHTML, like Gecko) Chrome/125.0.0.0 Safari/537.36" etag="dZzXM7rzIqrUg5tqSokE" version="24.6.0" type="github" pages="4">
  <diagram name="第 1 页" id="3CNT_n8_xedpkPyEsT_4">
    <mxGraphModel dx="5186" dy="795" grid="1" gridSize="10" guides="1" tooltips="1" connect="1" arrows="1" fold="1" page="1" pageScale="1" pageWidth="3300" pageHeight="4681" math="0" shadow="0">
      <root>
        <mxCell id="0" />
        <mxCell id="1" parent="0" />
        <mxCell id="fUwTUBrXmUmAVzIqWHVz-3" value="" style="rounded=0;whiteSpace=wrap;html=1;" parent="1" vertex="1">
          <mxGeometry x="400" y="240" width="430" height="440" as="geometry" />
        </mxCell>
        <mxCell id="fUwTUBrXmUmAVzIqWHVz-4" value="配置" style="rounded=0;whiteSpace=wrap;html=1;" parent="1" vertex="1">
          <mxGeometry x="580" y="250" width="70" height="20" as="geometry" />
        </mxCell>
        <mxCell id="fUwTUBrXmUmAVzIqWHVz-12" value="应用：" style="rounded=0;whiteSpace=wrap;html=1;align=left;" parent="1" vertex="1">
          <mxGeometry x="470" y="340" width="40" height="20" as="geometry" />
        </mxCell>
        <mxCell id="fUwTUBrXmUmAVzIqWHVz-14" value="xjgl" style="rounded=0;whiteSpace=wrap;html=1;align=left;" parent="1" vertex="1">
          <mxGeometry x="520" y="340" width="50" height="20" as="geometry" />
        </mxCell>
        <mxCell id="fUwTUBrXmUmAVzIqWHVz-48" value="确定" style="rounded=1;whiteSpace=wrap;html=1;" parent="1" vertex="1">
          <mxGeometry x="597.5" y="610" width="65" height="20" as="geometry" />
        </mxCell>
        <mxCell id="fUwTUBrXmUmAVzIqWHVz-51" value="移除" style="rounded=1;whiteSpace=wrap;html=1;" parent="1" vertex="1">
          <mxGeometry x="582.5" y="340" width="40" height="20" as="geometry" />
        </mxCell>
        <mxCell id="fUwTUBrXmUmAVzIqWHVz-52" value="添加应用" style="rounded=1;whiteSpace=wrap;html=1;" parent="1" vertex="1">
          <mxGeometry x="470" y="400" width="50" height="20" as="geometry" />
        </mxCell>
        <mxCell id="pNhOilyHpPYFhd5x2Kn3-1" value="" style="rounded=0;whiteSpace=wrap;html=1;" vertex="1" parent="1">
          <mxGeometry x="-190" y="490" width="430" height="440" as="geometry" />
        </mxCell>
        <mxCell id="pNhOilyHpPYFhd5x2Kn3-4" value="业务系统" style="rounded=0;whiteSpace=wrap;html=1;" vertex="1" parent="1">
          <mxGeometry x="-10" y="500" width="70" height="20" as="geometry" />
        </mxCell>
        <mxCell id="pNhOilyHpPYFhd5x2Kn3-16" value="系统名称" style="rounded=0;whiteSpace=wrap;html=1;align=center;" vertex="1" parent="1">
          <mxGeometry x="-160" y="550" width="50" height="20" as="geometry" />
        </mxCell>
        <mxCell id="pNhOilyHpPYFhd5x2Kn3-17" value="业务域" style="rounded=0;whiteSpace=wrap;html=1;align=center;" vertex="1" parent="1">
          <mxGeometry x="-80" y="550" width="50" height="20" as="geometry" />
        </mxCell>
        <mxCell id="pNhOilyHpPYFhd5x2Kn3-18" value="查看日志" style="rounded=1;whiteSpace=wrap;html=1;" vertex="1" parent="1">
          <mxGeometry x="150" y="610" width="65" height="20" as="geometry" />
        </mxCell>
        <mxCell id="pNhOilyHpPYFhd5x2Kn3-19" value="学工" style="rounded=0;whiteSpace=wrap;html=1;align=left;" vertex="1" parent="1">
          <mxGeometry x="-160" y="610" width="50" height="20" as="geometry" />
        </mxCell>
        <mxCell id="pNhOilyHpPYFhd5x2Kn3-20" value="usims" style="rounded=0;whiteSpace=wrap;html=1;align=left;" vertex="1" parent="1">
          <mxGeometry x="-80" y="610" width="50" height="20" as="geometry" />
        </mxCell>
        <mxCell id="pNhOilyHpPYFhd5x2Kn3-21" value="配置" style="rounded=1;whiteSpace=wrap;html=1;" vertex="1" parent="1">
          <mxGeometry x="70" y="610" width="65" height="20" as="geometry" />
        </mxCell>
        <mxCell id="pNhOilyHpPYFhd5x2Kn3-23" value="操作" style="rounded=0;whiteSpace=wrap;html=1;align=center;" vertex="1" parent="1">
          <mxGeometry x="120" y="550" width="50" height="20" as="geometry" />
        </mxCell>
        <mxCell id="pNhOilyHpPYFhd5x2Kn3-24" value="查看日志" style="rounded=1;whiteSpace=wrap;html=1;" vertex="1" parent="1">
          <mxGeometry x="150" y="650" width="65" height="20" as="geometry" />
        </mxCell>
        <mxCell id="pNhOilyHpPYFhd5x2Kn3-25" value="灵捷" style="rounded=0;whiteSpace=wrap;html=1;align=left;" vertex="1" parent="1">
          <mxGeometry x="-160" y="650" width="50" height="20" as="geometry" />
        </mxCell>
        <mxCell id="pNhOilyHpPYFhd5x2Kn3-26" value="agileleap" style="rounded=0;whiteSpace=wrap;html=1;align=left;" vertex="1" parent="1">
          <mxGeometry x="-80" y="650" width="50" height="20" as="geometry" />
        </mxCell>
        <mxCell id="pNhOilyHpPYFhd5x2Kn3-27" value="配置" style="rounded=1;whiteSpace=wrap;html=1;" vertex="1" parent="1">
          <mxGeometry x="70" y="650" width="65" height="20" as="geometry" />
        </mxCell>
        <mxCell id="pNhOilyHpPYFhd5x2Kn3-28" value="诚信" style="rounded=0;whiteSpace=wrap;html=1;align=left;" vertex="1" parent="1">
          <mxGeometry x="-160" y="690" width="50" height="20" as="geometry" />
        </mxCell>
        <mxCell id="pNhOilyHpPYFhd5x2Kn3-29" value="xxx" style="rounded=0;whiteSpace=wrap;html=1;align=left;" vertex="1" parent="1">
          <mxGeometry x="-80" y="690" width="50" height="20" as="geometry" />
        </mxCell>
        <mxCell id="pNhOilyHpPYFhd5x2Kn3-30" value="查看日志" style="rounded=1;whiteSpace=wrap;html=1;" vertex="1" parent="1">
          <mxGeometry x="150" y="690" width="65" height="20" as="geometry" />
        </mxCell>
        <mxCell id="pNhOilyHpPYFhd5x2Kn3-31" value="配置" style="rounded=1;whiteSpace=wrap;html=1;" vertex="1" parent="1">
          <mxGeometry x="70" y="690" width="65" height="20" as="geometry" />
        </mxCell>
        <mxCell id="pNhOilyHpPYFhd5x2Kn3-32" value="低代码" style="rounded=0;whiteSpace=wrap;html=1;align=left;" vertex="1" parent="1">
          <mxGeometry x="-160" y="730" width="50" height="20" as="geometry" />
        </mxCell>
        <mxCell id="pNhOilyHpPYFhd5x2Kn3-33" value="lowcode" style="rounded=0;whiteSpace=wrap;html=1;align=left;" vertex="1" parent="1">
          <mxGeometry x="-80" y="730" width="50" height="20" as="geometry" />
        </mxCell>
        <mxCell id="pNhOilyHpPYFhd5x2Kn3-34" value="查看日志" style="rounded=1;whiteSpace=wrap;html=1;" vertex="1" parent="1">
          <mxGeometry x="150" y="730" width="65" height="20" as="geometry" />
        </mxCell>
        <mxCell id="pNhOilyHpPYFhd5x2Kn3-35" value="配置" style="rounded=1;whiteSpace=wrap;html=1;" vertex="1" parent="1">
          <mxGeometry x="70" y="730" width="65" height="20" as="geometry" />
        </mxCell>
        <mxCell id="pNhOilyHpPYFhd5x2Kn3-36" value="" style="rounded=0;whiteSpace=wrap;html=1;" vertex="1" parent="1">
          <mxGeometry x="400" y="750" width="430" height="440" as="geometry" />
        </mxCell>
        <mxCell id="pNhOilyHpPYFhd5x2Kn3-37" value="域：" style="rounded=0;whiteSpace=wrap;html=1;align=center;" vertex="1" parent="1">
          <mxGeometry x="430" y="790" width="50" height="20" as="geometry" />
        </mxCell>
        <mxCell id="pNhOilyHpPYFhd5x2Kn3-38" value="应用：" style="rounded=0;whiteSpace=wrap;html=1;align=center;" vertex="1" parent="1">
          <mxGeometry x="520" y="790" width="50" height="20" as="geometry" />
        </mxCell>
      </root>
    </mxGraphModel>
  </diagram>
  <diagram id="XMzsIqaVuFEMN86JU90s" name="第 3 页">
    <mxGraphModel dx="1886" dy="795" grid="1" gridSize="10" guides="1" tooltips="1" connect="1" arrows="1" fold="1" page="1" pageScale="1" pageWidth="3300" pageHeight="4681" math="0" shadow="0">
      <root>
        <mxCell id="0" />
        <mxCell id="1" parent="0" />
        <mxCell id="N8iZFXaRu0B1tr8CgU3M-12" style="edgeStyle=orthogonalEdgeStyle;rounded=0;orthogonalLoop=1;jettySize=auto;html=1;exitX=0.5;exitY=1;exitDx=0;exitDy=0;entryX=0.5;entryY=0;entryDx=0;entryDy=0;" edge="1" parent="1" source="N8iZFXaRu0B1tr8CgU3M-13" target="N8iZFXaRu0B1tr8CgU3M-2">
          <mxGeometry relative="1" as="geometry">
            <mxPoint x="805" y="130" as="sourcePoint" />
          </mxGeometry>
        </mxCell>
        <mxCell id="N8iZFXaRu0B1tr8CgU3M-24" value="" style="edgeStyle=orthogonalEdgeStyle;rounded=0;orthogonalLoop=1;jettySize=auto;html=1;" edge="1" parent="1" source="N8iZFXaRu0B1tr8CgU3M-2" target="N8iZFXaRu0B1tr8CgU3M-19">
          <mxGeometry relative="1" as="geometry" />
        </mxCell>
        <mxCell id="N8iZFXaRu0B1tr8CgU3M-2" value="拦截请求" style="rounded=0;whiteSpace=wrap;html=1;" vertex="1" parent="1">
          <mxGeometry x="760" y="180" width="90" height="30" as="geometry" />
        </mxCell>
        <mxCell id="N8iZFXaRu0B1tr8CgU3M-13" value="开始" style="rounded=1;whiteSpace=wrap;html=1;" vertex="1" parent="1">
          <mxGeometry x="760" y="90" width="90" height="30" as="geometry" />
        </mxCell>
        <mxCell id="N8iZFXaRu0B1tr8CgU3M-20" style="edgeStyle=orthogonalEdgeStyle;rounded=0;orthogonalLoop=1;jettySize=auto;html=1;exitX=0.5;exitY=1;exitDx=0;exitDy=0;entryX=0.5;entryY=0;entryDx=0;entryDy=0;" edge="1" parent="1" source="N8iZFXaRu0B1tr8CgU3M-19" target="N8iZFXaRu0B1tr8CgU3M-33">
          <mxGeometry relative="1" as="geometry">
            <mxPoint x="805" y="400" as="targetPoint" />
          </mxGeometry>
        </mxCell>
        <mxCell id="N8iZFXaRu0B1tr8CgU3M-49" value="是" style="edgeLabel;html=1;align=center;verticalAlign=middle;resizable=0;points=[];" vertex="1" connectable="0" parent="N8iZFXaRu0B1tr8CgU3M-20">
          <mxGeometry x="-0.1" y="-1" relative="1" as="geometry">
            <mxPoint as="offset" />
          </mxGeometry>
        </mxCell>
        <mxCell id="N8iZFXaRu0B1tr8CgU3M-42" style="edgeStyle=orthogonalEdgeStyle;rounded=0;orthogonalLoop=1;jettySize=auto;html=1;exitX=0;exitY=0.5;exitDx=0;exitDy=0;entryX=0.5;entryY=0;entryDx=0;entryDy=0;" edge="1" parent="1" source="N8iZFXaRu0B1tr8CgU3M-19" target="N8iZFXaRu0B1tr8CgU3M-41">
          <mxGeometry relative="1" as="geometry" />
        </mxCell>
        <mxCell id="N8iZFXaRu0B1tr8CgU3M-43" value="否" style="edgeLabel;html=1;align=center;verticalAlign=middle;resizable=0;points=[];" vertex="1" connectable="0" parent="N8iZFXaRu0B1tr8CgU3M-42">
          <mxGeometry x="-0.5818" relative="1" as="geometry">
            <mxPoint as="offset" />
          </mxGeometry>
        </mxCell>
        <mxCell id="N8iZFXaRu0B1tr8CgU3M-19" value="存在操作&lt;div&gt;日志&lt;span style=&quot;background-color: initial;&quot;&gt;头？&lt;/span&gt;&lt;/div&gt;" style="rhombus;whiteSpace=wrap;html=1;" vertex="1" parent="1">
          <mxGeometry x="765" y="260" width="80" height="60" as="geometry" />
        </mxCell>
        <mxCell id="N8iZFXaRu0B1tr8CgU3M-46" style="edgeStyle=orthogonalEdgeStyle;rounded=0;orthogonalLoop=1;jettySize=auto;html=1;exitX=0.5;exitY=1;exitDx=0;exitDy=0;" edge="1" parent="1" source="N8iZFXaRu0B1tr8CgU3M-30" target="N8iZFXaRu0B1tr8CgU3M-38">
          <mxGeometry relative="1" as="geometry" />
        </mxCell>
        <mxCell id="N8iZFXaRu0B1tr8CgU3M-30" value="记录操作日志" style="rounded=0;whiteSpace=wrap;html=1;" vertex="1" parent="1">
          <mxGeometry x="760" y="530" width="90" height="30" as="geometry" />
        </mxCell>
        <mxCell id="N8iZFXaRu0B1tr8CgU3M-31" style="edgeStyle=orthogonalEdgeStyle;rounded=0;orthogonalLoop=1;jettySize=auto;html=1;exitX=0.5;exitY=1;exitDx=0;exitDy=0;" edge="1" parent="1" source="N8iZFXaRu0B1tr8CgU3M-33" target="N8iZFXaRu0B1tr8CgU3M-30">
          <mxGeometry relative="1" as="geometry" />
        </mxCell>
        <mxCell id="N8iZFXaRu0B1tr8CgU3M-33" value="是否配置为需要记录？" style="rhombus;whiteSpace=wrap;html=1;" vertex="1" parent="1">
          <mxGeometry x="765" y="400" width="80" height="60" as="geometry" />
        </mxCell>
        <mxCell id="N8iZFXaRu0B1tr8CgU3M-38" value="结束" style="rounded=1;whiteSpace=wrap;html=1;" vertex="1" parent="1">
          <mxGeometry x="760" y="640" width="90" height="30" as="geometry" />
        </mxCell>
        <mxCell id="N8iZFXaRu0B1tr8CgU3M-45" value="" style="edgeStyle=orthogonalEdgeStyle;rounded=0;orthogonalLoop=1;jettySize=auto;html=1;" edge="1" parent="1" source="N8iZFXaRu0B1tr8CgU3M-41" target="N8iZFXaRu0B1tr8CgU3M-44">
          <mxGeometry relative="1" as="geometry" />
        </mxCell>
        <mxCell id="N8iZFXaRu0B1tr8CgU3M-41" value="进入业务系统" style="rounded=0;whiteSpace=wrap;html=1;" vertex="1" parent="1">
          <mxGeometry x="590" y="350" width="90" height="30" as="geometry" />
        </mxCell>
        <mxCell id="N8iZFXaRu0B1tr8CgU3M-51" style="edgeStyle=orthogonalEdgeStyle;rounded=0;orthogonalLoop=1;jettySize=auto;html=1;exitX=1;exitY=0.5;exitDx=0;exitDy=0;entryX=0;entryY=0.5;entryDx=0;entryDy=0;" edge="1" parent="1" source="N8iZFXaRu0B1tr8CgU3M-44" target="N8iZFXaRu0B1tr8CgU3M-33">
          <mxGeometry relative="1" as="geometry" />
        </mxCell>
        <mxCell id="N8iZFXaRu0B1tr8CgU3M-44" value="组装操作日志" style="rounded=0;whiteSpace=wrap;html=1;" vertex="1" parent="1">
          <mxGeometry x="590" y="415" width="90" height="30" as="geometry" />
        </mxCell>
      </root>
    </mxGraphModel>
  </diagram>
  <diagram id="Fj3tzCypmG-5rx5jvGol" name="第 4 页">
    <mxGraphModel dx="1886" dy="795" grid="1" gridSize="10" guides="1" tooltips="1" connect="1" arrows="1" fold="1" page="1" pageScale="1" pageWidth="3300" pageHeight="4681" math="0" shadow="0">
      <root>
        <mxCell id="0" />
        <mxCell id="1" parent="0" />
        <mxCell id="wAXzH0bgRL2LgkpBNWe3-16" style="edgeStyle=orthogonalEdgeStyle;rounded=0;orthogonalLoop=1;jettySize=auto;html=1;exitX=0.5;exitY=0;exitDx=0;exitDy=0;entryX=0.5;entryY=1;entryDx=0;entryDy=0;" edge="1" parent="1" source="wAXzH0bgRL2LgkpBNWe3-2" target="wAXzH0bgRL2LgkpBNWe3-13">
          <mxGeometry relative="1" as="geometry" />
        </mxCell>
        <mxCell id="wAXzH0bgRL2LgkpBNWe3-2" value="监理项目" style="rounded=0;whiteSpace=wrap;html=1;" vertex="1" parent="1">
          <mxGeometry x="820" y="730" width="120" height="60" as="geometry" />
        </mxCell>
        <mxCell id="wAXzH0bgRL2LgkpBNWe3-15" style="edgeStyle=orthogonalEdgeStyle;rounded=0;orthogonalLoop=1;jettySize=auto;html=1;exitX=0.5;exitY=0;exitDx=0;exitDy=0;entryX=0.5;entryY=1;entryDx=0;entryDy=0;" edge="1" parent="1" source="wAXzH0bgRL2LgkpBNWe3-3" target="wAXzH0bgRL2LgkpBNWe3-13">
          <mxGeometry relative="1" as="geometry" />
        </mxCell>
        <mxCell id="wAXzH0bgRL2LgkpBNWe3-3" value="学工项目" style="rounded=0;whiteSpace=wrap;html=1;" vertex="1" parent="1">
          <mxGeometry x="610" y="730" width="120" height="60" as="geometry" />
        </mxCell>
        <mxCell id="wAXzH0bgRL2LgkpBNWe3-8" value="配置" style="rounded=0;whiteSpace=wrap;html=1;" vertex="1" parent="1">
          <mxGeometry x="1310" y="470" width="120" height="60" as="geometry" />
        </mxCell>
        <mxCell id="wAXzH0bgRL2LgkpBNWe3-17" style="edgeStyle=orthogonalEdgeStyle;rounded=0;orthogonalLoop=1;jettySize=auto;html=1;exitX=0.5;exitY=0;exitDx=0;exitDy=0;entryX=0.5;entryY=1;entryDx=0;entryDy=0;" edge="1" parent="1" source="wAXzH0bgRL2LgkpBNWe3-9" target="wAXzH0bgRL2LgkpBNWe3-8">
          <mxGeometry relative="1" as="geometry" />
        </mxCell>
        <mxCell id="wAXzH0bgRL2LgkpBNWe3-9" value="低代码平台&lt;div&gt;操作日志配置&lt;/div&gt;" style="rounded=0;whiteSpace=wrap;html=1;dashed=1;" vertex="1" parent="1">
          <mxGeometry x="1140" y="600" width="120" height="60" as="geometry" />
        </mxCell>
        <mxCell id="wAXzH0bgRL2LgkpBNWe3-19" style="edgeStyle=orthogonalEdgeStyle;rounded=0;orthogonalLoop=1;jettySize=auto;html=1;entryX=0.5;entryY=1;entryDx=0;entryDy=0;exitX=0.5;exitY=0;exitDx=0;exitDy=0;" edge="1" parent="1" source="rhiM2jPWC2wqOPwPqg7W-4" target="wAXzH0bgRL2LgkpBNWe3-8">
          <mxGeometry relative="1" as="geometry">
            <mxPoint x="1620" y="600" as="sourcePoint" />
          </mxGeometry>
        </mxCell>
        <mxCell id="qh-XRYBO5RQTl8u21IiB-4" style="edgeStyle=orthogonalEdgeStyle;rounded=0;orthogonalLoop=1;jettySize=auto;html=1;exitX=0.5;exitY=0;exitDx=0;exitDy=0;entryX=0.5;entryY=1;entryDx=0;entryDy=0;" edge="1" parent="1" source="wAXzH0bgRL2LgkpBNWe3-13" target="qh-XRYBO5RQTl8u21IiB-2">
          <mxGeometry relative="1" as="geometry" />
        </mxCell>
        <mxCell id="wAXzH0bgRL2LgkpBNWe3-13" value="项目" style="rounded=0;whiteSpace=wrap;html=1;" vertex="1" parent="1">
          <mxGeometry x="720" y="600" width="120" height="60" as="geometry" />
        </mxCell>
        <mxCell id="rhiM2jPWC2wqOPwPqg7W-6" style="edgeStyle=orthogonalEdgeStyle;rounded=0;orthogonalLoop=1;jettySize=auto;html=1;exitX=0.5;exitY=0;exitDx=0;exitDy=0;entryX=0.5;entryY=1;entryDx=0;entryDy=0;" edge="1" parent="1" source="rhiM2jPWC2wqOPwPqg7W-2" target="rhiM2jPWC2wqOPwPqg7W-4">
          <mxGeometry relative="1" as="geometry" />
        </mxCell>
        <mxCell id="rhiM2jPWC2wqOPwPqg7W-2" value="学工项目&lt;div&gt;操作日志配置&lt;/div&gt;" style="rounded=0;whiteSpace=wrap;html=1;" vertex="1" parent="1">
          <mxGeometry x="1395" y="740" width="120" height="60" as="geometry" />
        </mxCell>
        <mxCell id="rhiM2jPWC2wqOPwPqg7W-7" style="edgeStyle=orthogonalEdgeStyle;rounded=0;orthogonalLoop=1;jettySize=auto;html=1;exitX=0.5;exitY=0;exitDx=0;exitDy=0;entryX=0.5;entryY=1;entryDx=0;entryDy=0;" edge="1" parent="1" source="rhiM2jPWC2wqOPwPqg7W-3" target="rhiM2jPWC2wqOPwPqg7W-4">
          <mxGeometry relative="1" as="geometry" />
        </mxCell>
        <mxCell id="rhiM2jPWC2wqOPwPqg7W-3" value="监理项目&lt;div&gt;操作日志配置&lt;/div&gt;" style="rounded=0;whiteSpace=wrap;html=1;" vertex="1" parent="1">
          <mxGeometry x="1585" y="740" width="120" height="60" as="geometry" />
        </mxCell>
        <mxCell id="rhiM2jPWC2wqOPwPqg7W-4" value="项目配置" style="rounded=0;whiteSpace=wrap;html=1;" vertex="1" parent="1">
          <mxGeometry x="1490" y="600" width="120" height="60" as="geometry" />
        </mxCell>
        <mxCell id="qh-XRYBO5RQTl8u21IiB-3" style="edgeStyle=orthogonalEdgeStyle;rounded=0;orthogonalLoop=1;jettySize=auto;html=1;exitX=0.5;exitY=0;exitDx=0;exitDy=0;" edge="1" parent="1" source="qh-XRYBO5RQTl8u21IiB-1" target="qh-XRYBO5RQTl8u21IiB-2">
          <mxGeometry relative="1" as="geometry" />
        </mxCell>
        <mxCell id="qh-XRYBO5RQTl8u21IiB-1" value="低代码平台" style="rounded=0;whiteSpace=wrap;html=1;dashed=1;" vertex="1" parent="1">
          <mxGeometry x="390" y="600" width="120" height="60" as="geometry" />
        </mxCell>
        <mxCell id="qh-XRYBO5RQTl8u21IiB-2" value="业务系统" style="rounded=0;whiteSpace=wrap;html=1;" vertex="1" parent="1">
          <mxGeometry x="550" y="470" width="120" height="60" as="geometry" />
        </mxCell>
      </root>
    </mxGraphModel>
  </diagram>
  <diagram id="Qi9BopCc-EFSybH4K90r" name="第 5 页">
    <mxGraphModel dx="1434" dy="761" grid="1" gridSize="10" guides="1" tooltips="1" connect="1" arrows="1" fold="1" page="1" pageScale="1" pageWidth="3300" pageHeight="4681" math="0" shadow="0">
      <root>
        <mxCell id="0" />
        <mxCell id="1" parent="0" />
        <mxCell id="GZGxMje2xZCiEUOySqBW-1" value="基于低代码平台开发" style="rounded=0;whiteSpace=wrap;html=1;" vertex="1" parent="1">
          <mxGeometry x="800" y="300" width="260" height="60" as="geometry" />
        </mxCell>
        <mxCell id="GZGxMje2xZCiEUOySqBW-2" value="独立开发" style="rounded=0;whiteSpace=wrap;html=1;" vertex="1" parent="1">
          <mxGeometry x="1060" y="300" width="80" height="60" as="geometry" />
        </mxCell>
        <mxCell id="GZGxMje2xZCiEUOySqBW-4" value="业务系统" style="text;html=1;align=center;verticalAlign=middle;whiteSpace=wrap;rounded=0;" vertex="1" parent="1">
          <mxGeometry x="950" y="250" width="60" height="30" as="geometry" />
        </mxCell>
        <mxCell id="XCUwHkFL4be5pvRwMJax-1" value="基于低代码平台开发" style="rounded=0;whiteSpace=wrap;html=1;" vertex="1" parent="1">
          <mxGeometry x="800" y="490" width="260" height="60" as="geometry" />
        </mxCell>
        <mxCell id="XCUwHkFL4be5pvRwMJax-2" value="独立开发" style="rounded=0;whiteSpace=wrap;html=1;" vertex="1" parent="1">
          <mxGeometry x="1060" y="490" width="80" height="60" as="geometry" />
        </mxCell>
        <mxCell id="XCUwHkFL4be5pvRwMJax-3" value="业务系统操作日志配置" style="text;html=1;align=center;verticalAlign=middle;whiteSpace=wrap;rounded=0;" vertex="1" parent="1">
          <mxGeometry x="915" y="450" width="130" height="30" as="geometry" />
        </mxCell>
      </root>
    </mxGraphModel>
  </diagram>
</mxfile>
